<svg xmlns="http://www.w3.org/2000/svg" width="585" height="427" viewBox="0 0 585 427">
<g>
<path d="M 400.60 340.60 L 397.20 344.00 L 320.35 343.94 C278.08,343.90 242.51,343.48 241.31,342.99 C237.71,341.54 236.26,338.02 235.11,327.87 C231.78,298.65 216.88,277.00 191.50,264.50 C180.80,259.23 171.12,257.00 158.89,257.00 C146.70,257.00 136.17,259.36 126.13,264.34 C103.14,275.74 87.33,297.71 84.24,322.54 L 83.50 328.50 L 76.52 328.80 C72.68,328.97 68.46,328.83 67.13,328.50 C64.75,327.90 64.72,327.75 65.34,319.69 C66.08,310.10 67.79,303.07 72.10,291.90 C75.51,283.05 84.75,268.50 90.42,263.05 L 94.00 259.61 L 94.02 229.55 C94.04,204.55 94.38,197.23 96.07,186.00 C99.74,161.54 103.87,132.65 105.00,123.50 C105.89,116.25 105.89,112.86 107.59,111.28 C109.08,109.89 111.89,109.92 117.78,109.97 C119.08,109.99 120.54,110.00 122.18,110.00 C135.96,110.00 137.09,110.14 136.60,111.75 C136.05,113.51 128.19,151.86 125.41,166.26 C124.06,173.30 124.07,174.34 125.54,177.44 C128.57,183.82 130.54,184.17 162.29,183.87 C204.01,183.48 204.62,183.77 210.00,206.22 C211.75,213.52 214.88,226.95 216.96,236.06 C221.22,254.71 222.11,256.89 226.95,260.47 L 230.39 263.00 L 291.97 263.00 L 292.24 293.25 L 292.50 323.50 L 381.50 323.50 L 383.77 315.00 C385.03,310.33 388.52,297.05 391.54,285.50 C394.55,273.95 398.12,260.45 399.46,255.50 C400.81,250.55 404.18,238.12 406.95,227.88 C411.74,210.24 412.89,202.82 411.23,200.45 C410.83,199.88 409.05,198.39 407.27,197.15 C405.49,195.90 398.90,187.83 392.64,179.19 C391.23,177.26 389.96,175.51 388.81,173.92 C380.21,162.04 378.28,159.37 376.44,159.43 C375.66,159.46 374.90,159.98 373.65,160.50 C370.16,161.96 369.59,161.96 367.42,160.54 C364.56,158.67 363.38,154.70 364.61,151.11 C365.76,147.74 375.36,142.66 379.00,143.49 C382.01,144.18 384.19,146.61 397.22,163.75 C408.12,178.10 409.68,179.10 413.96,174.54 C417.02,171.29 416.85,170.60 406.44,144.31 C401.69,132.31 396.53,119.12 394.97,115.00 C393.41,110.88 389.90,101.79 387.17,94.81 L 382.21 82.11 L 394.36 81.81 C401.04,81.64 406.95,81.62 407.50,81.76 C408.05,81.91 415.02,98.34 422.99,118.26 C445.58,174.75 442.29,165.12 457.67,219.50 C460.16,228.30 463.46,240.23 465.00,246.00 C466.55,251.77 469.43,262.12 471.41,269.00 C481.00,302.22 486.00,321.39 486.00,324.91 C486.00,329.45 481.13,334.00 476.29,334.00 C469.65,334.00 467.98,331.18 462.06,310.00 C456.05,288.52 453.34,279.19 451.40,273.22 C450.63,270.86 450.00,268.30 450.00,267.52 C450.00,264.95 448.12,264.91 443.29,267.38 C436.26,270.98 426.04,279.85 420.53,287.12 C411.29,299.32 404.02,318.98 404.01,331.85 C404.00,336.60 403.62,337.58 400.60,340.60 ZM 178.04 390.13 C170.71,392.93 151.06,393.72 143.27,391.53 C125.42,386.50 109.45,371.87 103.06,354.70 C99.87,346.14 99.09,329.19 101.47,320.00 C109.55,288.79 139.77,270.58 172.12,277.44 C199.35,283.21 218.73,309.68 216.71,338.35 C215.10,361.11 199.58,381.90 178.04,390.13 ZM 151.27 90.96 L 147.24 95.00 L 104.74 95.00 L 105.25 91.25 C105.54,89.19 107.47,83.90 109.56,79.50 C116.56,64.73 129.51,54.31 146.43,49.83 C152.99,48.10 160.69,48.00 289.12,48.00 C372.18,48.00 425.11,48.36 425.46,48.93 C426.06,49.91 417.95,63.97 415.71,65.83 C414.38,66.93 397.51,67.86 331.00,70.51 C196.74,75.84 180.67,76.66 173.50,78.53 C165.85,80.54 156.44,85.80 151.27,90.96 ZM 324.76 305.00 C319.22,308.38 313.15,306.92 309.49,301.34 C307.06,297.64 307.28,294.14 311.44,269.54 C313.39,258.01 314.65,248.26 314.24,247.86 C313.83,247.46 299.10,246.99 281.50,246.82 L 249.50 246.50 L 243.55 243.50 C233.56,238.47 233.55,238.44 233.21,201.06 C232.89,166.78 233.06,165.52 238.38,161.72 C241.15,159.75 242.73,159.50 252.50,159.50 L 263.50 159.50 L 285.00 171.96 C306.85,184.62 311.58,187.69 316.44,187.91 C317.95,187.97 319.47,187.76 321.53,187.48 C322.25,187.38 323.03,187.28 323.90,187.17 C338.73,185.33 341.49,185.54 343.93,188.63 C346.81,192.30 346.52,194.68 342.75,198.42 C339.67,201.47 338.79,201.73 325.92,203.44 C325.03,203.56 324.20,203.67 323.42,203.78 C318.70,204.43 315.73,204.83 312.85,204.49 C307.50,203.86 302.45,200.66 287.02,191.64 C277.95,186.34 269.96,182.00 269.27,182.00 C267.32,182.00 267.48,214.10 269.44,217.89 L 270.89 220.68 L 286.10 221.34 C294.47,221.70 308.11,222.01 316.41,222.01 C332.71,222.03 334.86,222.55 338.40,227.32 C341.93,232.07 341.24,243.34 335.68,272.00 C333.06,285.48 330.27,297.97 329.47,299.76 C328.68,301.55 326.56,303.91 324.76,305.00 ZM 498.96 393.38 C486.34,396.48 478.50,396.29 465.33,392.52 C446.28,387.08 429.24,368.83 424.52,348.81 C420.01,329.71 424.89,310.55 438.33,294.50 L 440.84 291.50 L 441.86 294.16 C442.43,295.63 444.27,302.10 445.97,308.53 C448.80,319.28 448.96,320.73 447.94,326.35 C444.22,346.84 457.02,365.43 478.00,369.99 C482.60,370.99 484.65,370.92 490.48,369.55 C499.39,367.47 504.46,364.46 510.84,357.48 C518.97,348.59 521.94,335.96 518.54,324.75 C515.81,315.75 507.76,306.55 499.38,302.84 C496.01,301.35 495.02,300.32 494.48,297.74 C494.12,295.96 492.73,290.69 491.41,286.04 C490.08,281.39 489.00,277.06 489.00,276.42 C489.00,274.83 496.90,275.75 503.90,278.15 C513.02,281.27 521.42,286.62 527.66,293.29 C535.10,301.25 538.28,306.64 541.60,316.93 C543.96,324.24 544.17,326.17 543.79,336.76 C543.47,345.51 542.81,350.01 541.19,354.43 C534.14,373.70 517.84,388.74 498.96,393.38 ZM 145.58 365.57 C150.52,367.64 152.82,368.00 159.50,367.77 C173.05,367.28 182.36,361.11 188.60,348.49 C192.08,341.46 192.24,340.69 191.80,333.29 C191.51,328.45 190.55,323.73 189.26,320.82 C186.65,314.95 180.00,307.67 174.06,304.18 C169.90,301.73 168.59,301.50 159.00,301.50 C149.36,301.50 148.02,301.74 142.69,304.44 C133.13,309.29 127.35,317.09 125.04,328.25 C122.01,342.94 131.13,359.51 145.58,365.57 ZM 276.40 147.90 C268.47,150.11 259.00,148.61 253.06,144.21 C249.17,141.33 244.20,134.39 243.05,130.22 C241.31,123.97 241.83,118.87 244.85,112.49 C249.33,103.02 257.27,98.00 267.79,98.00 C276.39,98.00 282.08,100.31 287.34,105.94 C293.98,113.03 295.79,122.39 292.43,132.24 C290.45,138.05 281.94,146.37 276.40,147.90 ZM 111.32 213.99 C112.52,214.48 130.43,214.90 151.13,214.94 C152.65,214.94 154.10,214.94 155.51,214.94 C183.38,215.00 189.06,215.01 190.70,212.44 C191.20,211.66 191.32,210.63 191.59,209.29 C192.29,205.80 189.99,200.60 187.06,199.03 C185.84,198.38 171.72,198.00 148.52,198.00 L 111.91 198.00 L 109.45 200.45 C105.45,204.46 106.50,212.05 111.32,213.99 ZM 485.50 189.50 L 486.04 230.99 L 482.68 234.65 C480.83,236.67 479.08,237.91 478.78,237.41 C477.96,236.00 466.77,190.89 467.16,190.54 C467.35,190.37 471.55,190.06 476.50,189.86 ZM 60.43 346.43 C59.13,347.73 56.13,347.99 43.18,347.97 C34.40,347.95 26.73,347.49 25.75,346.92 C23.74,345.75 23.43,341.97 25.20,340.20 C26.04,339.36 31.42,339.00 43.00,339.00 C60.09,339.00 62.00,339.41 62.00,343.13 C62.00,344.08 61.29,345.56 60.43,346.43 Z" fill="rgb(2,2,2)"/>
<path d="M 0.00 213.50 L 0.00 0.00 L 292.50 0.00 L 585.00 0.00 L 585.00 213.50 L 585.00 427.00 L 292.50 427.00 L 0.00 427.00 L 0.00 213.50 ZM 498.96 393.38 C517.84,388.74 534.14,373.70 541.19,354.43 C542.81,350.01 543.47,345.51 543.79,336.76 C544.17,326.17 543.96,324.24 541.60,316.93 C538.28,306.64 535.10,301.25 527.66,293.29 C521.42,286.62 513.02,281.27 503.90,278.15 C496.90,275.75 489.00,274.83 489.00,276.42 C489.00,277.06 490.08,281.39 491.41,286.04 C492.73,290.69 494.12,295.96 494.48,297.74 C495.02,300.32 496.01,301.35 499.38,302.84 C507.76,306.55 515.81,315.75 518.54,324.75 C521.94,335.96 518.97,348.59 510.84,357.48 C504.46,364.46 499.39,367.47 490.48,369.55 C484.65,370.92 482.60,370.99 478.00,369.99 C457.02,365.43 444.22,346.84 447.94,326.35 C448.96,320.73 448.80,319.28 445.97,308.53 C444.27,302.10 442.43,295.63 441.86,294.16 L 440.84 291.50 L 438.33 294.50 C424.89,310.55 420.01,329.71 424.52,348.81 C429.24,368.83 446.28,387.08 465.33,392.52 C478.50,396.29 486.34,396.48 498.96,393.38 ZM 178.04 390.13 C199.58,381.90 215.10,361.11 216.71,338.35 C218.73,309.68 199.35,283.21 172.12,277.44 C139.77,270.58 109.55,288.79 101.47,320.00 C99.09,329.19 99.87,346.14 103.06,354.70 C109.45,371.87 125.42,386.50 143.27,391.53 C151.06,393.72 170.71,392.93 178.04,390.13 ZM 60.43 346.43 C61.29,345.56 62.00,344.08 62.00,343.13 C62.00,339.41 60.09,339.00 43.00,339.00 C31.42,339.00 26.04,339.36 25.20,340.20 C23.43,341.97 23.74,345.75 25.75,346.92 C26.73,347.49 34.40,347.95 43.18,347.97 C56.13,347.99 59.13,347.73 60.43,346.43 ZM 400.60 340.60 C403.62,337.58 404.00,336.60 404.01,331.85 C404.02,318.98 411.29,299.32 420.53,287.12 C426.04,279.85 436.26,270.98 443.29,267.38 C448.12,264.91 450.00,264.95 450.00,267.52 C450.00,268.30 450.63,270.86 451.40,273.22 C453.34,279.19 456.05,288.52 462.06,310.00 C467.98,331.18 469.65,334.00 476.29,334.00 C481.13,334.00 486.00,329.45 486.00,324.91 C486.00,321.39 481.00,302.22 471.41,269.00 C469.43,262.12 466.55,251.77 465.00,246.00 C463.46,240.23 460.16,228.30 457.67,219.50 C442.29,165.12 445.58,174.75 422.99,118.26 C415.02,98.34 408.05,81.91 407.50,81.76 C406.95,81.62 401.04,81.64 394.36,81.81 L 382.21 82.11 L 387.17 94.81 C389.90,101.79 393.41,110.88 394.97,115.00 C396.53,119.12 401.69,132.31 406.44,144.31 C416.85,170.60 417.02,171.29 413.96,174.54 C409.68,179.10 408.12,178.10 397.22,163.75 C384.19,146.61 382.01,144.18 379.00,143.49 C375.36,142.66 365.76,147.74 364.61,151.11 C363.38,154.70 364.56,158.67 367.42,160.54 C369.59,161.96 370.16,161.96 373.65,160.50 C378.23,158.59 376.28,156.67 392.64,179.19 C398.90,187.83 405.49,195.90 407.27,197.15 C409.05,198.39 410.83,199.88 411.23,200.45 C412.89,202.82 411.74,210.24 406.95,227.88 C404.18,238.12 400.81,250.55 399.46,255.50 C398.12,260.45 394.55,273.95 391.54,285.50 C388.52,297.05 385.03,310.33 383.77,315.00 L 381.50 323.50 L 337.00 323.50 L 292.50 323.50 L 292.24 293.25 L 291.97 263.00 L 261.18 263.00 L 230.39 263.00 L 226.95 260.47 C222.11,256.89 221.22,254.71 216.96,236.06 C214.88,226.95 211.75,213.52 210.00,206.22 C204.62,183.77 204.01,183.48 162.29,183.87 C130.54,184.17 128.57,183.82 125.54,177.44 C124.07,174.34 124.06,173.30 125.41,166.26 C128.19,151.86 136.05,113.51 136.60,111.75 C137.09,110.14 135.96,110.00 122.18,110.00 C104.88,110.00 106.85,108.45 105.00,123.50 C103.87,132.65 99.74,161.54 96.07,186.00 C94.38,197.23 94.04,204.55 94.02,229.55 L 94.00 259.61 L 90.42 263.05 C84.75,268.50 75.51,283.05 72.10,291.90 C67.79,303.07 66.08,310.10 65.34,319.69 C64.72,327.75 64.75,327.90 67.13,328.50 C68.46,328.83 72.68,328.97 76.52,328.80 L 83.50 328.50 L 84.24 322.54 C87.33,297.71 103.14,275.74 126.13,264.34 C136.17,259.36 146.70,257.00 158.89,257.00 C171.12,257.00 180.80,259.23 191.50,264.50 C216.88,277.00 231.78,298.65 235.11,327.87 C236.26,338.02 237.71,341.54 241.31,342.99 C242.51,343.48 278.08,343.90 320.35,343.94 L 397.20 344.00 L 400.60 340.60 ZM 324.76 305.00 C326.56,303.91 328.68,301.55 329.47,299.76 C330.27,297.97 333.06,285.48 335.68,272.00 C341.24,243.34 341.93,232.07 338.40,227.32 C334.86,222.55 332.71,222.03 316.41,222.01 C308.11,222.01 294.47,221.70 286.10,221.34 L 270.89 220.68 L 269.44 217.89 C267.48,214.10 267.32,182.00 269.27,182.00 C269.96,182.00 277.95,186.34 287.02,191.64 C312.14,206.32 309.74,205.59 325.92,203.44 C338.79,201.73 339.67,201.47 342.75,198.42 C346.52,194.68 346.81,192.30 343.93,188.63 C341.49,185.54 338.73,185.33 323.90,187.17 C312.54,188.58 316.03,189.94 285.00,171.96 L 263.50 159.50 L 252.50 159.50 C242.73,159.50 241.15,159.75 238.38,161.72 C233.06,165.52 232.89,166.78 233.21,201.06 C233.55,238.44 233.56,238.47 243.55,243.50 L 249.50 246.50 L 281.50 246.82 C299.10,246.99 313.83,247.46 314.24,247.86 C314.65,248.26 313.39,258.01 311.44,269.54 C307.28,294.14 307.06,297.64 309.49,301.34 C313.15,306.92 319.22,308.38 324.76,305.00 ZM 485.77 210.24 L 485.50 189.50 L 476.50 189.86 C471.55,190.06 467.35,190.37 467.16,190.54 C466.77,190.89 477.96,236.00 478.78,237.41 C479.08,237.91 480.83,236.67 482.68,234.65 L 486.04 230.99 L 485.77 210.24 ZM 276.40 147.90 C281.94,146.37 290.45,138.05 292.43,132.24 C295.79,122.39 293.98,113.03 287.34,105.94 C282.08,100.31 276.39,98.00 267.79,98.00 C257.27,98.00 249.33,103.02 244.85,112.49 C241.83,118.87 241.31,123.97 243.05,130.22 C244.20,134.39 249.17,141.33 253.06,144.21 C259.00,148.61 268.47,150.11 276.40,147.90 ZM 151.27 90.96 C156.44,85.80 165.85,80.54 173.50,78.53 C180.67,76.66 196.74,75.84 331.00,70.51 C397.51,67.86 414.38,66.93 415.71,65.83 C417.95,63.97 426.06,49.91 425.46,48.93 C425.11,48.36 372.18,48.00 289.12,48.00 C160.69,48.00 152.99,48.10 146.43,49.83 C129.51,54.31 116.56,64.73 109.56,79.50 C107.47,83.90 105.54,89.19 105.25,91.25 L 104.74 95.00 L 125.99 95.00 L 147.24 95.00 L 151.27 90.96 ZM 145.58 365.57 C131.13,359.51 122.01,342.94 125.04,328.25 C127.35,317.09 133.13,309.29 142.69,304.44 C148.02,301.74 149.36,301.50 159.00,301.50 C168.59,301.50 169.90,301.73 174.06,304.18 C180.00,307.67 186.65,314.95 189.26,320.82 C190.55,323.73 191.51,328.45 191.80,333.29 C192.24,340.69 192.08,341.46 188.60,348.49 C182.36,361.11 173.05,367.28 159.50,367.77 C152.82,368.00 150.52,367.64 145.58,365.57 ZM 111.32 213.99 C106.50,212.05 105.45,204.46 109.45,200.45 L 111.91 198.00 L 148.52 198.00 C171.72,198.00 185.84,198.38 187.06,199.03 C189.99,200.60 192.29,205.80 191.59,209.29 C190.40,215.23 192.02,215.01 151.13,214.94 C130.43,214.90 112.52,214.48 111.32,213.99 Z" fill="rgb(254,254,254)"/>
</g>
</svg>